<svg xmlns="http://www.w3.org/2000/svg" xmlns:xlink="http://www.w3.org/1999/xlink" aria-label="Rust"
  viewBox="0 0 512 512" width="256" height="256">
  <rect width="512" height="512" fill="#ffffff" rx="15%" class="colorfff svgShape"></rect>
  <g transform="translate(256 256)" fill="#000000" class="color000 svgShape">
    <g id="d" fill="#000000" class="color000 svgShape">
      <g id="c" fill="#000000" class="color000 svgShape">
        <g id="b" fill="#000000" class="color000 svgShape">
          <path id="a" d="M20-183 6-206c-3-5-9-5-12 0l-14 23m0 366 14 23c3 5 9 5 12 0l14-23" fill="#000000"
            class="color000 svgShape"></path>
          <use transform="rotate(11.25)" xlink:href="#a"></use>
        </g>
        <use transform="rotate(22.5)" xlink:href="#b"></use>
      </g>
      <use transform="rotate(45)" xlink:href="#c"></use>
    </g>
    <use transform="rotate(90)" xlink:href="#d"></use>
    <g id="f" fill="#000000" class="color000 svgShape">
      <path id="e"
        d="M-101-161a190 190 0 00-76 230l32-16a154 154 0 01-8-73l25-13c6-3 9-9 5-15l-11-26a155 155 0 0159-61m-88 82c5-16 29-7 24 8s-29 8-24-8"
        fill="#000000" class="color000 svgShape"></path>
      <use transform="rotate(72)" xlink:href="#e"></use>
    </g>
    <use transform="rotate(144)" xlink:href="#f"></use>
    <use transform="rotate(-72)" xlink:href="#e"></use>
    <path
      d="M135 10s4 32-18 32-6-24-43-51c0 0 31-13 31-47s-40-48-57-48h-187v46h35v99h-52v49h160v-48h-39v-28h40c41 0 13 76 60 76h99v-80m-199-38v-30h54c22 0 23 30 0 30"
      fill="#000000" class="color000 svgShape"></path>
  </g>
</svg>